# xmcd
#
# Track frame offsets:
#	150
#	16185
#	31278
#	52918
#	68601
#	82707
#	101973
#	123639
#
# Disc length: 1939 seconds
#
# Revision: 0
# Processed by: cddbd v1.5PL3 Copyright (c) Steve Scherf et al.
# Submitted via: audiograbber 1.83.01
#
DISCID=59079108
DTITLE=Michael und die Night Angels - Du bist wie Himmel und Hölle
DYEAR=2000
DGENRE=Pop-Folk
TTITLE0=Du bist wie Himmel und Hölle
TTITLE1=Lass es doch geschehen
TTITLE2=Denn meine Träume
TTITLE3=Tauendes Eis
TTITLE4=Du hast's geschafft
TTITLE5=Loreen
TTITLE6=Hoffnung
TTITLE7=Mein Glück
EXTD=
EXTT0=
EXTT1=
EXTT2=
EXTT3=
EXTT4=
EXTT5=
EXTT6=
EXTT7=
PLAYORDER=
